<svg width="100" height="101" viewBox="0 0 100 101" fill="none" xmlns="http://www.w3.org/2000/svg">
<rect y="0.5" width="100" height="100" rx="50" fill="white"/>
<path d="M75 27.9684L73.8658 36.7902C71.0933 36.6005 68.9509 37.1064 67.4386 38.3079C65.9263 39.5094 64.9181 41.1852 64.414 43.3353C63.9099 45.4854 63.8154 47.9201 64.1304 50.6394H75V73.5H54.1115V48.7422C54.1115 41.2801 55.8759 35.6519 59.4045 31.8576C62.9962 28.0001 68.1947 26.7037 75 27.9684ZM45.8885 27.9684L44.7543 36.7902C41.9817 36.6005 39.8393 37.1064 38.327 38.3079C36.8147 39.5094 35.8066 41.1852 35.3025 43.3353C34.7984 45.4854 34.7038 47.9201 35.0189 50.6394H45.8885V73.5H25V48.7422C25 41.2801 26.7643 35.6519 30.293 31.8576C33.8847 28.0001 39.0832 26.7037 45.8885 27.9684Z" fill="#002E50"/>
</svg>
