<svg width="32" height="40" viewBox="0 0 32 40" fill="none" xmlns="http://www.w3.org/2000/svg">
<path d="M21.2138 38.4316C20.8531 38.3839 20.5838 38.249 20.4059 38.0269C20.4093 38.0662 20.3555 38.1303 20.2445 38.2192C20.13 38.2689 20.0137 38.2989 19.8958 38.3092C19.8206 38.3554 19.7437 38.3819 19.6651 38.3888L19.0444 38.0866L18.6058 37.8278C17.765 38.1787 17.2659 38.361 17.1087 38.3748C16.9907 38.3851 16.718 38.2109 16.2904 37.8521L16.3774 37.488L16.3258 36.8982C16.2762 36.7837 16.2325 36.5103 16.1946 36.0778L16.1762 35.1881C16.1335 35.1522 16.1052 35.0556 16.0914 34.8984C16.0846 34.8198 16.0777 34.7411 16.0708 34.6625C16.0998 34.5411 16.1288 34.4197 16.1578 34.2983C16.0207 33.6369 15.9153 33.1113 15.8416 32.7216C15.7644 32.2926 15.7207 32.0191 15.7104 31.9012L15.9536 31.2856C15.4937 31.009 15.2568 30.792 15.243 30.6347C15.2327 30.5168 15.3745 30.3261 15.6684 30.0627C15.5898 30.0696 15.5239 29.9961 15.4708 29.8423C15.4178 29.6885 15.3519 29.615 15.2733 29.6219C15.3023 29.5005 15.2996 29.2433 15.2652 28.8501L15.1391 28.0887L15.5313 27.8167C15.4355 27.627 15.3251 27.498 15.2003 27.4296L15.1642 27.0168C14.887 26.5657 14.7467 26.3205 14.7433 26.2812C14.7399 26.2419 14.7902 26.1384 14.8944 25.9708C15.002 25.8426 15.0524 25.7391 15.0455 25.6605L14.9659 25.4298C14.8735 25.2794 14.8256 25.1846 14.8222 25.1452L14.837 23.9555C14.7514 23.8837 14.6839 23.7906 14.6342 23.6761L14.5878 23.1454C14.5878 23.1454 14.5861 23.1257 14.5826 23.0864C14.5792 23.0471 14.5561 23.0095 14.5134 22.9736C14.4279 22.9019 14.403 22.8446 14.4389 22.8019C14.4114 22.4874 14.5522 22.0591 14.8613 21.517C14.8151 21.4418 14.6313 21.3787 14.3099 21.3276C14.1134 21.3448 14.0065 21.2551 13.9893 21.0585L13.9738 20.8816L13.7969 20.8971L13.8816 21.1868C13.8816 21.1868 13.8834 21.2064 13.8868 21.2458C13.8868 21.2458 13.8689 21.2671 13.833 21.3099C13.5971 21.3305 13.4715 21.4802 13.4563 21.7588C13.4632 21.8374 13.4128 21.9409 13.3052 22.0691L13.39 22.3588C13.3541 22.4016 13.3037 22.505 13.2388 22.6692C13.3774 22.8947 13.3963 23.111 13.2956 23.3179C13.0617 23.8137 12.9233 24.0437 12.8806 24.0078L12.8164 23.954C12.8164 23.954 12.7771 23.9574 12.6985 23.9643C12.4557 23.9063 12.3636 24.2115 12.4221 24.8798L12.5098 25.8824C12.556 25.9575 12.6039 26.0524 12.6535 26.1669C12.7031 26.2814 12.7545 26.4156 12.8076 26.5694L12.8363 27.577L12.6004 27.5977C12.5012 27.3687 12.4105 27.238 12.3284 27.2055L12.1515 27.221L12.0387 27.2903C12.4014 27.8132 12.5879 28.1336 12.5982 28.2515C12.5471 28.5729 12.4412 28.7208 12.2805 28.6953C12.195 28.6235 12.0915 28.5732 11.9702 28.5442C11.8846 28.4724 11.7812 28.4221 11.6598 28.3931C11.5419 28.4034 11.4846 28.4282 11.4881 28.4675C11.4915 28.5068 11.6198 28.6144 11.8728 28.7904C11.9362 29.0621 12.109 29.2253 12.3911 29.2798L12.4198 30.2875L11.7659 30.2853C11.8328 30.5964 11.8748 30.8502 11.892 31.0468C11.9057 31.204 11.9143 31.3023 11.9178 31.3416L11.8743 31.5237C11.8777 31.563 11.8615 31.604 11.8256 31.6468C11.7863 31.6502 11.7684 31.6716 11.7718 31.7109L11.9362 32.2314C11.9893 32.3852 12.021 32.5211 12.0313 32.639C12.0382 32.7176 12.0433 32.7766 12.0468 32.8159C12.0109 32.8587 11.9588 32.9424 11.8905 33.0673C11.8581 33.1493 11.8111 33.2921 11.7497 33.4956L11.5757 34.2238C11.4819 34.5094 11.3042 34.7428 11.0428 34.9241C11.0634 35.16 11.1413 35.3711 11.2764 35.5573C11.4116 35.7436 11.4698 35.9564 11.4511 36.1957C11.4187 36.2778 11.3718 36.4205 11.3103 36.624C11.2455 36.7881 11.184 36.9916 11.126 37.2343C11.0902 37.2771 11.1108 37.513 11.1879 37.942C11.0906 38.1882 10.9027 38.3037 10.624 38.2884L10.1957 38.1476C10.0316 38.0828 9.89057 38.0555 9.77263 38.0658L9.37015 38.2199L8.84972 38.3842C8.80697 38.3484 8.7249 38.3159 8.60352 38.2869C8.52145 38.2545 8.42144 38.2434 8.3035 38.2538L7.71379 38.3054C7.67447 38.3088 7.59412 38.296 7.47274 38.267C7.39067 38.2346 7.26929 38.2056 7.1086 38.18L6.50856 38.1137C6.46925 38.1171 6.3744 38.165 6.22402 38.2574C6.07709 38.3891 5.98224 38.437 5.93949 38.4012C5.82154 38.4115 5.68812 38.2449 5.53922 37.9014C5.4144 37.8331 5.34683 37.7399 5.33651 37.622L5.46183 37.0168L5.44635 36.8399C5.42916 36.6433 5.35643 36.4912 5.22817 36.3836L5.45373 36.245L5.5127 36.2399L5.52302 36.3578C5.59477 36.2723 5.64343 36.1492 5.66898 35.9885L5.4331 36.0091C5.27584 36.0229 5.18001 35.8332 5.14562 35.4401L5.08371 34.7324C5.04243 34.2606 4.98592 34.0675 4.91417 34.153C5.25424 33.9648 5.43877 33.81 5.46777 33.6886C5.45745 33.5707 5.2223 33.3734 4.76233 33.0967L4.85448 32.7915C4.85448 32.7915 4.80828 32.7163 4.7159 32.5659C4.6525 32.2942 4.55496 32.0848 4.42326 31.9379C4.44341 31.2627 4.45423 30.7071 4.45571 30.2712C4.45375 29.796 4.44589 29.4798 4.43213 29.3225L4.1137 28.3996C4.10682 28.321 4.17513 28.1962 4.31863 28.0251L4.53387 27.7686C4.498 27.8114 4.38252 27.6234 4.18743 27.2047C4.25917 27.1192 4.24714 26.9816 4.15131 26.7919C4.10512 26.7167 4.03927 26.6432 3.95376 26.5715C3.86481 26.4604 3.77414 26.3297 3.68176 26.1793C3.71419 26.0973 3.72181 25.9579 3.70461 25.7614L3.63016 25.5896C3.62672 25.5503 3.60535 25.5324 3.56603 25.5358C3.52328 25.4999 3.50018 25.4623 3.49674 25.423L3.44737 24.1795C3.44393 24.1401 3.43705 24.0615 3.42673 23.9436C3.41641 23.8256 3.38472 23.6897 3.33164 23.5359L3.41863 23.1718C3.79114 22.9015 3.96707 22.6484 3.94643 22.4125C3.9258 22.1766 3.59826 21.829 2.96384 21.3695C2.90732 21.1763 2.86875 20.9618 2.84811 20.7259C2.82747 20.4901 2.8034 20.2149 2.77588 19.9003L2.73461 19.4286C2.71053 19.1534 2.65574 18.9799 2.57023 18.9081C2.6351 18.744 2.65894 18.5637 2.64174 18.3671C2.5066 18.1808 2.3663 17.9356 2.22084 17.6314C2.24983 17.51 2.25573 17.3511 2.23853 17.1545C2.22134 16.9579 2.2007 16.722 2.17662 16.4468C2.11323 16.1751 2.06016 16.0212 2.01741 15.9854C2.08572 15.8606 2.13265 15.7178 2.1582 15.5571C2.22307 15.393 2.28623 15.2092 2.34766 15.0057C2.68429 14.7782 2.8816 14.543 2.93959 14.3003L2.92411 14.1234C2.90347 13.8875 2.82902 13.7157 2.70076 13.6081C2.51795 13.7825 2.41131 14.1484 2.38083 14.7057L2.32186 14.7109C2.28254 14.7143 2.24495 14.7374 2.20908 14.7801C2.20908 14.7801 2.18942 14.7819 2.1501 14.7853C2.07148 14.7922 1.96459 14.7025 1.82945 14.5162C1.94199 13.9914 1.99139 13.6503 1.97763 13.4931C1.97075 13.4145 1.90318 13.3213 1.77492 13.2137L1.76166 12.383C1.62652 12.1967 1.48106 11.8925 1.32528 11.4704L1.26043 10.0499C1.25355 9.97127 1.22529 9.8747 1.17566 9.7602L1.09605 9.52947L0.807849 7.59373C0.794091 7.43647 0.834145 7.21509 0.928011 6.92957C0.963886 6.88682 1.0177 6.82269 1.08945 6.73718C1.1612 6.65167 1.27226 6.56272 1.42264 6.47034C1.37645 6.39515 1.19437 6.35165 0.876418 6.33986L0.689185 6.23739C0.612036 5.80837 0.442499 5.22898 0.180577 4.4992C0.324075 4.32819 0.476173 4.25546 0.63687 4.28101C0.63343 4.2417 0.667585 4.17929 0.739335 4.09378C0.486251 3.91785 0.28354 3.63847 0.131202 3.25564L0.117943 2.42489C0.200011 2.45732 0.303456 2.50769 0.428278 2.576C0.588975 2.60156 0.751391 2.64677 0.915527 2.71164C0.951402 2.66889 1.00865 2.64407 1.08728 2.63719C1.16591 2.63031 1.26248 2.60206 1.37698 2.55243L1.86939 2.74704C1.94458 2.70085 2.03942 2.65293 2.15393 2.6033C2.30774 2.55022 2.46156 2.49715 2.61538 2.44408L3.22057 2.5694L3.33851 2.55908C3.53509 2.54189 3.70684 2.46744 3.85378 2.33574C3.93929 2.40749 4.02479 2.47924 4.1103 2.55098C4.19581 2.62273 4.30097 2.69276 4.4258 2.76107C4.50443 2.75419 4.63343 2.64387 4.8128 2.4301L4.99487 2.47359C4.99487 2.47359 5.00691 2.61119 5.03099 2.88639C5.00543 3.04709 5.073 3.14022 5.2337 3.16577C5.39096 3.15202 5.48408 3.08444 5.51308 2.96306C5.54551 2.88099 5.53692 2.78271 5.48728 2.6682C5.43421 2.51439 5.40767 2.43748 5.40767 2.43748L5.70769 2.47065L6.13597 2.61145L6.54877 2.57534L6.68735 2.8009L6.70133 4.99832C6.51508 5.13346 6.31777 5.36861 6.1094 5.70376C6.1094 5.70376 6.22144 5.85242 6.44553 6.14974C6.62686 6.41118 6.71925 6.56156 6.72269 6.60087C6.70401 6.8402 6.55707 6.9719 6.28187 6.99597C6.20324 7.00285 6.10496 7.01145 5.98702 7.02177C5.86907 7.03209 5.74941 7.02275 5.62803 6.99376C5.59215 7.03651 5.58109 7.13651 5.59485 7.29377C5.80862 7.47314 5.9762 7.57733 6.09758 7.60632C6.25484 7.59257 6.40521 7.50018 6.54871 7.32916L6.87969 7.71617C7.05758 7.93829 7.14653 8.04936 7.14653 8.04936L7.00573 8.47764C6.98017 8.63833 7.00081 8.87422 7.06764 9.18529C7.07452 9.26392 7.06002 9.32461 7.02415 9.36737C6.82758 9.38456 6.73961 9.51111 6.76025 9.74699C6.78088 9.98288 6.8374 10.176 6.92978 10.3264C6.74697 10.5008 6.66072 10.647 6.67104 10.765C6.69168 11.0009 6.77547 11.053 6.9224 10.9213L7.15829 10.9006L7.46125 11.6466C7.39638 11.8108 7.32979 11.9552 7.26148 12.0801C7.18973 12.1656 7.11798 12.2511 7.04623 12.3366L7.04179 13.6443C7.41282 13.8099 7.58899 14.0124 7.57031 14.2517C7.57375 14.291 7.5396 14.3534 7.46785 14.4389C7.36023 14.5672 7.30985 14.6706 7.31673 14.7492L7.47079 15.1517C7.52042 15.2662 7.56834 15.3611 7.61453 15.4363C7.66072 15.5115 7.68554 15.5687 7.68898 15.608L7.94034 15.7643C7.94722 15.8429 7.93616 15.9429 7.90717 16.0643C7.91749 16.1823 7.93124 16.3395 7.94844 16.5361L7.97496 18.1976L7.98012 18.2566C7.99732 18.4531 8.09069 18.8411 8.26022 19.4205L8.10394 19.6719C8.06807 19.7146 8.05357 19.7753 8.06045 19.854L8.11942 19.8488C8.15874 19.8454 8.19977 19.8616 8.24252 19.8975C8.47841 19.8768 8.76541 19.5348 9.10352 18.8714C9.06076 18.8355 9.0701 18.7158 9.13153 18.5124C9.18952 18.2696 9.29887 18.161 9.45957 18.1866C9.45269 18.1079 9.38856 18.0541 9.26717 18.0251C9.22098 17.9499 9.18412 17.7551 9.15661 17.4406L9.52741 15.566C9.55641 15.4446 9.55199 15.1677 9.51415 14.7353L9.67559 14.5429L9.624 13.9532C9.65987 13.9104 9.67265 13.8301 9.66233 13.7121L9.87242 13.3966C9.85866 13.2394 9.84318 13.0624 9.82599 12.8659C9.84466 12.6265 9.86162 12.3676 9.87686 12.0889C9.91765 11.6496 10.056 11.4196 10.2919 11.399C10.5346 11.457 10.7184 11.5201 10.8433 11.5884L10.956 11.5191C10.9423 11.3619 10.8747 11.2687 10.7533 11.2398C10.5961 11.2535 10.4747 11.2245 10.3892 11.1528C10.343 11.0776 10.2968 11.0024 10.2506 10.9272C10.2403 10.8093 10.2086 10.6734 10.1555 10.5196L10.5425 10.1886C10.6005 9.94582 10.6243 9.76547 10.614 9.64752L10.6907 9.16543L10.5263 8.64501C10.4202 8.33737 10.385 8.16218 10.4209 8.11942C10.4072 7.96217 10.472 7.79803 10.6155 7.62702L10.4511 7.10659C10.4443 7.02796 10.6433 6.81247 11.0482 6.46012C10.7745 6.0483 10.6394 5.86205 10.6428 5.90137L10.704 5.24236C10.9227 5.02515 11.0183 4.75929 10.9908 4.44478L10.9546 4.03198C10.9905 3.98922 11.0264 3.94647 11.0623 3.90372C11.0981 3.86096 11.1323 3.79855 11.1647 3.71648L11.2208 2.99851C11.2257 2.60193 11.4051 2.38816 11.7589 2.3572C11.8016 2.39308 11.9461 2.45967 12.1923 2.55697C12.4385 2.65428 12.5813 2.70121 12.6206 2.69777C12.7385 2.68745 12.8658 2.55747 13.0024 2.30783L13.1845 2.35132C13.2273 2.38719 13.27 2.42307 13.3128 2.45895C13.3555 2.49482 13.4179 2.52897 13.5 2.56141C13.5359 2.51865 13.6718 2.48696 13.9077 2.46632C14.0497 2.7312 14.1797 2.85848 14.2976 2.84816C14.5335 2.82753 14.6694 2.79583 14.7052 2.75308C14.7411 2.71032 14.7197 2.69239 14.6411 2.69927L14.7591 2.68895L14.8232 2.74276C14.9514 2.85038 15.0446 2.78281 15.1026 2.54005C15.306 2.60148 15.4522 2.68773 15.5412 2.79879L15.7468 3.79099C15.7827 3.74823 15.868 3.36443 16.0026 2.63957C16.0385 2.59682 16.0957 2.572 16.1744 2.56512C16.2137 2.56168 16.5026 2.69486 17.0412 2.96467C17.0412 2.96467 17.025 3.0057 16.9926 3.08777C16.9602 3.16983 16.9098 3.27328 16.8415 3.3981C16.8877 3.47329 16.9262 3.6878 16.9572 4.04163L16.8393 4.05195C16.882 4.08782 16.9085 4.16473 16.9189 4.28267L16.8754 4.46475L16.9321 5.11343L17.1886 5.32868L17.2402 5.91839L17.3685 6.02602C17.4113 6.06189 17.4378 6.1388 17.4481 6.25675C17.3764 6.34225 17.3346 6.54398 17.3228 6.86194C17.2358 7.22609 17.1744 7.42954 17.1385 7.47229L17.4208 7.98239C17.4243 8.02171 17.4311 8.10034 17.4415 8.21828C17.4483 8.29691 17.4407 8.43623 17.4186 8.63624L17.552 8.80284C17.5982 8.87802 17.6247 8.95493 17.6316 9.03356C17.5957 9.07632 17.5599 9.11907 17.524 9.16182C17.4881 9.20458 17.4343 9.26871 17.3626 9.35422L17.4245 10.0619C17.5562 10.2088 17.6948 10.4344 17.8402 10.7386L17.7282 12.1745L17.9257 12.3949C18.0181 12.5453 18.0549 12.7402 18.0363 12.9795C18.0928 13.1726 18.1407 13.2675 18.18 13.264L17.8343 14.0668C17.8343 14.0668 17.8574 14.1044 17.9036 14.1796C17.9856 14.212 18.0729 14.3034 18.1653 14.4538L18.0937 14.9948C17.9655 14.8872 17.8407 14.8189 17.7193 14.7899C17.6996 16.3762 17.7129 17.207 17.7591 17.2822C18.4038 17.8596 18.7348 18.2466 18.752 18.4432L18.3959 19.128C18.3959 19.128 18.2814 19.1776 18.0524 19.2769L18.0679 19.4538C18.032 19.4966 18.0534 19.5145 18.132 19.5076C18.1679 19.4649 18.2448 19.4383 18.3628 19.428L18.9731 19.6123C18.9903 19.8089 18.8682 19.9978 18.6067 20.1792C18.6529 20.2543 18.8171 20.3192 19.0991 20.3738C19.2957 20.3566 19.4299 20.3052 19.5016 20.2197L19.4913 20.1018C19.4776 19.9445 19.4048 19.7924 19.2731 19.6455C19.7739 19.4828 20.0319 19.2622 20.0471 18.9835C20.0334 18.8263 19.9872 18.7511 19.9085 18.758L19.5444 18.671L20.0007 18.4528C20.2587 18.2321 20.2722 17.9338 20.0412 17.5579L20.0737 15.8912C20.1454 15.8057 20.2155 15.7005 20.2838 15.5757C20.3487 15.4116 20.4135 15.2475 20.4784 15.0833L20.4393 13.9577L20.3826 13.309L20.659 12.3935C20.7273 12.2687 20.8418 12.219 21.0025 12.2446C21.0212 12.0053 20.9844 11.8104 20.892 11.66L20.6789 11.2627C20.7866 11.1345 20.8532 10.99 20.8787 10.8293L20.8168 10.1216C20.7893 9.8071 20.8387 9.46605 20.965 9.09847L21.2237 8.65987C21.1348 8.54881 21.0586 8.35739 20.9952 8.08563C21.0291 7.56767 21.0589 7.22834 21.0844 7.06764C21.2279 6.89663 21.3663 6.66664 21.4994 6.37768L21.394 5.8521L21.2348 5.39065C21.4584 4.77686 21.6213 4.14857 21.7236 3.50578L21.7132 3.38784C21.7029 3.26989 21.6285 3.09814 21.4899 2.87257L21.5924 2.68534C21.811 2.46813 22.0418 2.38852 22.2845 2.44651C22.2845 2.44651 22.4059 2.47551 22.6487 2.5335C22.8128 2.59837 22.9145 2.62909 22.9539 2.62565L23.0128 2.62049C23.1701 2.60673 23.3205 2.51434 23.464 2.34333C23.5922 2.45095 23.717 2.51926 23.8384 2.54826C23.8384 2.54826 23.9171 2.54138 24.0743 2.52762L24.364 2.44285C24.4033 2.43941 24.5051 2.47013 24.6692 2.535C24.7085 2.53156 24.8034 2.48364 24.9537 2.39126L25.1845 2.31165C25.3127 2.41927 25.5196 2.52002 25.8051 2.61388L26.8563 2.40307C26.899 2.43895 26.9401 2.45517 26.9794 2.45173C27.058 2.44485 27.1187 2.45935 27.1615 2.49522L27.2794 2.4849C27.358 2.47802 27.4367 2.47114 27.5153 2.46426C27.6332 2.45394 27.7495 2.42397 27.864 2.37434C27.9853 2.40333 28.046 2.41783 28.046 2.41783L28.0718 2.71269C28.0753 2.752 28.0411 2.81441 27.9694 2.89992L27.7187 4.1103C27.6573 4.31375 27.5693 4.44029 27.4548 4.48993C27.501 4.56512 27.5344 4.72065 27.5551 4.95654L27.4143 5.38482C27.5563 5.6497 27.5966 5.88387 27.5352 6.08732L27.1636 6.5952C27.1278 6.63796 27.1312 6.67727 27.174 6.71315C27.1484 6.87384 27.0228 7.02348 26.7973 7.16206C26.8793 7.1945 26.9486 7.30728 27.0051 7.50041L26.6697 8.4211C26.7125 8.45697 26.8518 8.46459 27.0877 8.44396C27.0621 8.60465 27.0938 8.74053 27.1828 8.8516L26.6447 9.4929C26.7115 9.80398 26.7663 9.97745 26.809 10.0133L26.5016 10.575C26.5085 10.6537 26.5171 10.7519 26.5274 10.8699C26.5343 10.9485 26.525 11.0682 26.4994 11.2289C26.4635 11.2716 26.408 11.3161 26.3328 11.3623C26.2969 11.405 26.2431 11.4692 26.1714 11.5547L26.5024 11.9417L26.0896 11.9778C25.7819 12.0839 25.6888 12.1515 25.8102 12.1805C25.7709 12.184 25.7067 12.1301 25.6178 12.0191C25.3957 12.197 25.2718 12.3663 25.2463 12.527C25.2531 12.6056 25.2976 12.6611 25.3797 12.6936C25.4156 12.6508 25.7266 12.584 26.3129 12.4931C26.4122 12.7221 26.4635 12.8562 26.467 12.8955C26.3235 13.0666 26.2372 13.2128 26.2082 13.3341C26.075 13.6231 26.0274 13.9838 26.0652 14.4163L25.7578 14.978C25.8006 15.0138 25.8271 15.0907 25.8374 15.2087C25.8443 15.2873 25.8743 15.4035 25.9273 15.5574C25.7735 15.6104 25.6359 15.6225 25.5145 15.5935L25.2094 15.5013C25.1701 15.5048 25.1145 15.5492 25.0428 15.6348C24.8103 15.6947 24.6668 15.8657 24.6123 16.1478L25.0973 16.9373C25.3843 16.5953 25.5961 16.2994 25.7327 16.0498C25.6511 16.9284 25.6335 17.4054 25.6796 17.4806L24.8938 20.0451C24.74 20.0981 24.5434 20.1153 24.3041 20.0967C24.2682 20.1394 24.2572 20.2394 24.2709 20.3967C24.2709 20.3967 24.3333 20.4308 24.4582 20.4991L24.6299 20.4247L24.7479 20.4144C24.8471 20.6434 24.9002 20.7972 24.9071 20.8758C24.8712 20.9186 24.8046 21.0631 24.7073 21.3093C24.6493 21.552 24.622 21.6931 24.6255 21.7324C24.6358 21.8503 24.7137 22.0614 24.8592 22.3656L24.8849 22.6604C24.8132 22.746 24.6825 22.8366 24.4928 22.9325C24.2707 23.1103 24.1682 23.2976 24.1854 23.4941C24.1957 23.6121 24.3274 23.759 24.5805 23.935C24.5874 24.0136 24.5404 24.1564 24.4397 24.3632C24.3355 24.5308 24.2989 24.7915 24.3299 25.1454C24.2822 25.5061 24.1918 25.8309 24.0586 26.1198C23.9048 26.1729 23.7416 26.3457 23.5691 26.6381L23.5794 26.756C23.5863 26.8346 23.5949 26.9329 23.6052 27.0509C23.6155 27.1688 23.6472 27.3047 23.7003 27.4585C23.4679 27.5184 23.3568 27.6074 23.3671 27.7253C23.374 27.804 23.4202 27.8792 23.5057 27.9509C23.5981 28.1013 23.646 28.1961 23.6494 28.2354C23.5777 28.321 23.5111 28.4654 23.4497 28.6689C23.4634 28.8261 23.4627 29.0441 23.4474 29.3227C23.4715 29.5979 23.4777 29.8945 23.4659 30.2125C23.0506 30.4469 22.896 30.7179 23.0022 31.0255L23.0973 31.4332C23.1042 31.5118 23.111 31.5904 23.1179 31.669C23.1641 31.7442 23.1889 31.8015 23.1924 31.8408C23.2096 32.0374 23.2019 32.1767 23.1695 32.2588L22.6955 32.9539C22.4582 33.4104 22.3481 33.737 22.3653 33.9335C22.4901 34.0018 22.5808 34.1326 22.6373 34.3257L22.5945 35.8744C22.3793 36.131 22.1888 36.4447 22.0232 36.8158L22.1773 37.2182L22.1824 37.2772C22.1996 37.4738 22.1451 37.7559 22.0188 38.1234C21.6787 38.3117 21.4104 38.4144 21.2138 38.4316ZM5.05384 2.46843L4.99487 2.47359C5.03419 2.47015 5.05384 2.46843 5.05384 2.46843ZM2.22172 4.73659C2.25759 4.69383 2.35072 4.62626 2.5011 4.53388C2.45835 4.498 2.36006 4.5066 2.20624 4.55968L2.22172 4.73659ZM2.97065 5.14645C3.13479 5.21132 3.24929 5.16169 3.31416 4.99755C3.22865 4.9258 3.16624 4.89164 3.12693 4.89508C3.00899 4.9054 2.95689 4.98919 2.97065 5.14645ZM24.7598 4.25033C24.9751 3.9938 25.0776 3.80657 25.0672 3.68863L25.0621 3.62966C25.0311 3.27583 24.778 3.09989 24.3028 3.10185C24.1814 3.07286 24.0849 3.10112 24.0131 3.18662L23.9696 3.3687C23.98 3.48664 24.1117 3.63358 24.3647 3.80951C24.6213 4.02476 24.753 4.1717 24.7598 4.25033ZM13.0223 5.93088C13.0582 5.88813 13.1513 5.82055 13.3017 5.72817C13.2948 5.64954 13.1965 5.65814 13.0068 5.75396L13.0223 5.93088ZM13.7712 6.34074C13.8926 6.36973 14.0054 6.30044 14.1096 6.13287C14.0668 6.09699 14.0061 6.0825 13.9275 6.08937C13.8096 6.09969 13.7575 6.18348 13.7712 6.34074ZM23.7529 5.64573C23.7819 5.52434 23.7536 5.42778 23.6681 5.35603C23.6219 5.28084 23.545 5.30738 23.4374 5.43564C23.4443 5.51427 23.5494 5.5843 23.7529 5.64573ZM12.7672 8.44895C12.8031 8.4062 12.7569 8.33101 12.6287 8.22338C12.5893 8.22682 12.5338 8.2713 12.4621 8.35681L12.6441 8.4003C12.6834 8.39686 12.7048 8.4148 12.7083 8.45411C12.7476 8.45067 12.7672 8.44895 12.7672 8.44895ZM12.8498 9.39249C12.8822 9.31043 12.8557 9.23352 12.7702 9.16177C12.6847 9.09002 12.606 9.0969 12.5343 9.18241C12.5412 9.26104 12.6463 9.33107 12.8498 9.39249ZM14.3292 9.32248L14.3086 9.0866C14.2624 9.01141 14.2034 9.01657 14.1317 9.10208L14.3292 9.32248ZM2.78703 11.8773C2.92709 11.667 2.99024 11.4832 2.97648 11.3259C2.93029 11.2507 2.76099 11.1269 2.46859 10.9544L1.9946 11.6495C2.07667 11.6819 2.1784 11.7127 2.29978 11.7416C2.46047 11.7672 2.62289 11.8124 2.78703 11.8773ZM2.02256 16.0443C2.01569 15.9657 2.01397 15.9461 2.01741 15.9854L2.02256 16.0443ZM12.8445 18.8412C12.9659 18.8702 13.0787 18.8009 13.1829 18.6333C13.1401 18.5974 13.0794 18.5829 13.0008 18.5898C12.8828 18.6001 12.8308 18.6839 12.8445 18.8412ZM10.922 19.9601C10.9938 19.8746 11.0279 19.8122 11.0245 19.7729C11.0142 19.655 10.9304 19.6029 10.7731 19.6166C10.7048 19.7415 10.7545 19.856 10.922 19.9601ZM15.2269 19.5835C15.3483 19.6125 15.4611 19.5432 15.5653 19.3756C15.5225 19.3398 15.4619 19.3253 15.3832 19.3321C15.2653 19.3425 15.2132 19.4263 15.2269 19.5835ZM6.73873 22.4059C6.86011 22.4349 6.99255 22.3639 7.13605 22.1929C7.0933 22.157 7.01295 22.1442 6.895 22.1546C6.77706 22.1649 6.72497 22.2487 6.73873 22.4059ZM19.105 21.7994C19.1443 21.796 19.0981 21.7208 18.9664 21.5738C18.9271 21.5773 18.8716 21.6217 18.7999 21.7073L19.105 21.7994ZM4.87522 23.5197C4.91109 23.477 4.92559 23.4163 4.91871 23.3377C4.90839 23.2197 4.82461 23.1676 4.66735 23.1814C4.63835 23.3028 4.70764 23.4155 4.87522 23.5197ZM9.12116 23.1483C9.24254 23.1773 9.37499 23.1062 9.51848 22.9352C9.47573 22.8994 9.39538 22.8866 9.27744 22.8969C9.1595 22.9072 9.1074 22.991 9.12116 23.1483ZM19.1876 22.7429C19.22 22.6609 19.1935 22.584 19.108 22.5122C19.0225 22.4405 18.9242 22.4491 18.8131 22.538C18.8593 22.6132 18.9841 22.6815 19.1876 22.7429ZM20.667 22.6729L20.6464 22.437C20.6002 22.3619 20.5412 22.367 20.4695 22.4525L20.667 22.6729ZM6.02808 26.5089C6.06051 26.4268 6.22023 26.2147 6.50723 25.8727C6.50723 25.8727 6.53622 25.7513 6.59421 25.5086L7.13233 24.8673C6.7903 24.5803 6.61757 24.4171 6.61413 24.3778C6.59005 24.1026 6.53526 23.9291 6.44975 23.8574L6.09076 23.8293L6.13204 24.3011L6.35539 24.8164C6.36571 24.9343 6.23498 25.025 5.96322 25.0884L5.98902 25.3832C6.02833 25.3798 6.05143 25.4174 6.05831 25.496C6.06519 25.5747 5.9927 25.8781 5.84084 26.4064L6.02808 26.5089ZM20.9235 27.642C20.9132 27.5241 20.8866 27.4472 20.8439 27.4113C20.8011 27.3754 20.7046 27.4037 20.5542 27.4961C20.5645 27.614 20.6876 27.6626 20.9235 27.642ZM18.6369 28.674C18.7189 28.7064 18.8317 28.6371 18.9752 28.4661C18.8897 28.3944 18.7897 28.3833 18.6752 28.4329C18.6035 28.5184 18.5907 28.5988 18.6369 28.674ZM8.74809 30.4305C8.7874 30.427 8.82499 30.4039 8.86087 30.3612L8.97365 30.2919C8.97021 30.2526 8.92574 30.1971 8.84023 30.1253L8.74809 30.4305ZM21.2161 33.0239C21.4913 32.9998 21.6134 32.8109 21.5824 32.457C21.5584 32.1818 21.4232 31.9956 21.177 31.8983L21.1461 31.5444C21.0109 31.3582 21.033 31.1582 21.2124 30.9444L21.8405 30.6518L21.766 30.48L21.3532 30.5161L21.166 30.4137C21.0839 30.3812 20.9642 30.3719 20.807 30.3857L20.7045 30.5729C20.6328 30.6584 20.5969 30.7011 20.5969 30.7011L20.3507 30.6038C20.2259 30.5355 20.1455 30.5228 20.1097 30.5655C20.0772 30.6476 20.0696 30.7869 20.0868 30.9835C20.1315 31.4946 20.2394 31.8218 20.4104 31.9653L20.7104 31.9985C20.7104 31.9985 20.7566 32.0737 20.849 32.2241C20.8917 32.26 20.8952 32.2993 20.8593 32.342C20.8303 32.4634 20.8423 32.601 20.8954 32.7548C20.9912 32.9445 21.0981 33.0342 21.2161 33.0239ZM6.42091 32.3573C6.54229 32.3863 6.63886 32.3581 6.7106 32.2726C6.74648 32.2298 6.71822 32.1333 6.62584 31.9829C6.54721 31.9898 6.4789 32.1146 6.42091 32.3573ZM9.35617 36.0224C9.34585 35.9045 9.31931 35.8276 9.27656 35.7917C9.19105 35.72 9.09276 35.7286 8.9817 35.8175C8.98858 35.8961 9.1134 35.9645 9.35617 36.0224ZM20.3352 35.1808C20.3676 35.0987 20.3411 35.0218 20.2556 34.95C20.2128 34.9142 20.1162 34.9424 19.9659 35.0348C19.9762 35.1527 20.0993 35.2014 20.3352 35.1808ZM18.0485 36.2127C18.1306 36.2452 18.2434 36.1759 18.3869 36.0049C18.3441 35.969 18.2834 35.9545 18.2048 35.9614C18.0869 35.9717 18.0348 36.0555 18.0485 36.2127Z" fill="white"/>
</svg>
